<mxfile host="app.diagrams.net" agent="Mozilla/5.0 (Macintosh; Intel Mac OS X 10_15_7) AppleWebKit/537.36 (KHTML, like Gecko) Chrome/131.0.0.0 Safari/537.36" version="26.0.3">
  <diagram id="C5RBs43oDa-KdzZeNtuy" name="Page-1">
    <mxGraphModel dx="1811" dy="693" grid="1" gridSize="10" guides="1" tooltips="1" connect="1" arrows="1" fold="1" page="1" pageScale="1" pageWidth="827" pageHeight="1169" math="0" shadow="0">
      <root>
        <mxCell id="WIyWlLk6GJQsqaUBKTNV-0" />
        <mxCell id="WIyWlLk6GJQsqaUBKTNV-1" parent="WIyWlLk6GJQsqaUBKTNV-0" />
        <mxCell id="Z21egWhMQGi1yjxtVaf5-13" style="edgeStyle=orthogonalEdgeStyle;rounded=0;orthogonalLoop=1;jettySize=auto;html=1;exitX=0.5;exitY=1;exitDx=0;exitDy=0;entryX=0.5;entryY=0;entryDx=0;entryDy=0;strokeWidth=2;" edge="1" parent="WIyWlLk6GJQsqaUBKTNV-1" source="Z21egWhMQGi1yjxtVaf5-0" target="Z21egWhMQGi1yjxtVaf5-1">
          <mxGeometry relative="1" as="geometry" />
        </mxCell>
        <mxCell id="Z21egWhMQGi1yjxtVaf5-0" value="&lt;font style=&quot;font-size: 15px;&quot;&gt;患者筛选与纳入&lt;/font&gt;" style="rounded=1;whiteSpace=wrap;html=1;fontSize=12;glass=0;strokeWidth=1;shadow=0;" vertex="1" parent="WIyWlLk6GJQsqaUBKTNV-1">
          <mxGeometry x="140" y="160" width="160" height="40" as="geometry" />
        </mxCell>
        <mxCell id="Z21egWhMQGi1yjxtVaf5-1" value="&lt;font style=&quot;font-size: 16px;&quot;&gt;随机分组&lt;/font&gt;" style="rounded=1;whiteSpace=wrap;html=1;fontSize=12;glass=0;strokeWidth=1;shadow=0;" vertex="1" parent="WIyWlLk6GJQsqaUBKTNV-1">
          <mxGeometry x="140" y="230" width="160" height="40" as="geometry" />
        </mxCell>
        <mxCell id="Z21egWhMQGi1yjxtVaf5-2" value="&lt;font style=&quot;font-size: 15px;&quot;&gt;针药联合组治疗&lt;/font&gt;" style="rounded=1;whiteSpace=wrap;html=1;fontSize=12;glass=0;strokeWidth=1;shadow=0;" vertex="1" parent="WIyWlLk6GJQsqaUBKTNV-1">
          <mxGeometry x="-17" y="360" width="120" height="40" as="geometry" />
        </mxCell>
        <mxCell id="Z21egWhMQGi1yjxtVaf5-4" value="&lt;font style=&quot;font-size: 15px;&quot;&gt;中药组治疗&lt;/font&gt;" style="rounded=1;whiteSpace=wrap;html=1;fontSize=12;glass=0;strokeWidth=1;shadow=0;" vertex="1" parent="WIyWlLk6GJQsqaUBKTNV-1">
          <mxGeometry x="157" y="360" width="120" height="40" as="geometry" />
        </mxCell>
        <mxCell id="Z21egWhMQGi1yjxtVaf5-7" value="&lt;font style=&quot;font-size: 15px;&quot;&gt;西药组治疗&lt;/font&gt;" style="rounded=1;whiteSpace=wrap;html=1;fontSize=12;glass=0;strokeWidth=1;shadow=0;" vertex="1" parent="WIyWlLk6GJQsqaUBKTNV-1">
          <mxGeometry x="338" y="360" width="120" height="40" as="geometry" />
        </mxCell>
        <mxCell id="Z21egWhMQGi1yjxtVaf5-8" value="&lt;font style=&quot;font-size: 15px;&quot;&gt;数据收集与数据分析&lt;/font&gt;" style="rounded=1;whiteSpace=wrap;html=1;fontSize=12;glass=0;strokeWidth=1;shadow=0;" vertex="1" parent="WIyWlLk6GJQsqaUBKTNV-1">
          <mxGeometry x="140" y="495" width="160" height="40" as="geometry" />
        </mxCell>
        <mxCell id="Z21egWhMQGi1yjxtVaf5-17" style="edgeStyle=orthogonalEdgeStyle;rounded=0;orthogonalLoop=1;jettySize=auto;html=1;exitX=0.5;exitY=1;exitDx=0;exitDy=0;entryX=0.5;entryY=0;entryDx=0;entryDy=0;strokeWidth=2;" edge="1" parent="WIyWlLk6GJQsqaUBKTNV-1" target="Z21egWhMQGi1yjxtVaf5-10">
          <mxGeometry relative="1" as="geometry">
            <mxPoint x="220" y="535" as="sourcePoint" />
          </mxGeometry>
        </mxCell>
        <mxCell id="Z21egWhMQGi1yjxtVaf5-18" style="edgeStyle=orthogonalEdgeStyle;rounded=0;orthogonalLoop=1;jettySize=auto;html=1;exitX=0.5;exitY=1;exitDx=0;exitDy=0;entryX=0.5;entryY=0;entryDx=0;entryDy=0;strokeWidth=2;" edge="1" parent="WIyWlLk6GJQsqaUBKTNV-1" source="Z21egWhMQGi1yjxtVaf5-10" target="Z21egWhMQGi1yjxtVaf5-11">
          <mxGeometry relative="1" as="geometry" />
        </mxCell>
        <mxCell id="Z21egWhMQGi1yjxtVaf5-10" value="&lt;font style=&quot;font-size: 15px;&quot;&gt;结果评估&lt;/font&gt;" style="rounded=1;whiteSpace=wrap;html=1;fontSize=12;glass=0;strokeWidth=1;shadow=0;" vertex="1" parent="WIyWlLk6GJQsqaUBKTNV-1">
          <mxGeometry x="140" y="570" width="160" height="40" as="geometry" />
        </mxCell>
        <mxCell id="Z21egWhMQGi1yjxtVaf5-11" value="&lt;font style=&quot;font-size: 15px;&quot;&gt;撰写报告&lt;/font&gt;" style="rounded=1;whiteSpace=wrap;html=1;fontSize=12;glass=0;strokeWidth=1;shadow=0;" vertex="1" parent="WIyWlLk6GJQsqaUBKTNV-1">
          <mxGeometry x="140" y="640" width="160" height="40" as="geometry" />
        </mxCell>
        <mxCell id="Z21egWhMQGi1yjxtVaf5-22" style="edgeStyle=orthogonalEdgeStyle;rounded=0;orthogonalLoop=1;jettySize=auto;html=1;exitX=1;exitY=0;exitDx=0;exitDy=0;exitPerimeter=0;entryX=0.5;entryY=0;entryDx=0;entryDy=0;strokeWidth=2;" edge="1" parent="WIyWlLk6GJQsqaUBKTNV-1" source="Z21egWhMQGi1yjxtVaf5-20" target="Z21egWhMQGi1yjxtVaf5-7">
          <mxGeometry relative="1" as="geometry" />
        </mxCell>
        <mxCell id="Z21egWhMQGi1yjxtVaf5-23" style="edgeStyle=orthogonalEdgeStyle;rounded=0;orthogonalLoop=1;jettySize=auto;html=1;exitX=1;exitY=1;exitDx=0;exitDy=0;exitPerimeter=0;entryX=0.5;entryY=0;entryDx=0;entryDy=0;strokeWidth=2;" edge="1" parent="WIyWlLk6GJQsqaUBKTNV-1" source="Z21egWhMQGi1yjxtVaf5-20" target="Z21egWhMQGi1yjxtVaf5-2">
          <mxGeometry relative="1" as="geometry" />
        </mxCell>
        <mxCell id="Z21egWhMQGi1yjxtVaf5-20" value="" style="strokeWidth=2;html=1;shape=mxgraph.flowchart.annotation_2;align=left;labelPosition=right;pointerEvents=1;rotation=90;" vertex="1" parent="WIyWlLk6GJQsqaUBKTNV-1">
          <mxGeometry x="215.79" y="140" width="8.43" height="355" as="geometry" />
        </mxCell>
        <mxCell id="Z21egWhMQGi1yjxtVaf5-21" style="edgeStyle=orthogonalEdgeStyle;rounded=0;orthogonalLoop=1;jettySize=auto;html=1;exitX=0.5;exitY=1;exitDx=0;exitDy=0;entryX=0;entryY=0.5;entryDx=0;entryDy=0;entryPerimeter=0;endArrow=none;endFill=0;strokeWidth=2;" edge="1" parent="WIyWlLk6GJQsqaUBKTNV-1" source="Z21egWhMQGi1yjxtVaf5-1" target="Z21egWhMQGi1yjxtVaf5-20">
          <mxGeometry relative="1" as="geometry" />
        </mxCell>
        <mxCell id="Z21egWhMQGi1yjxtVaf5-27" style="edgeStyle=orthogonalEdgeStyle;rounded=0;orthogonalLoop=1;jettySize=auto;html=1;exitX=0;exitY=0.5;exitDx=0;exitDy=0;exitPerimeter=0;entryX=0.5;entryY=0;entryDx=0;entryDy=0;strokeWidth=2;" edge="1" parent="WIyWlLk6GJQsqaUBKTNV-1" source="Z21egWhMQGi1yjxtVaf5-26">
          <mxGeometry relative="1" as="geometry">
            <mxPoint x="220" y="499" as="targetPoint" />
          </mxGeometry>
        </mxCell>
        <mxCell id="Z21egWhMQGi1yjxtVaf5-26" value="" style="strokeWidth=2;html=1;shape=mxgraph.flowchart.annotation_2;align=left;labelPosition=right;pointerEvents=1;rotation=-90;" vertex="1" parent="WIyWlLk6GJQsqaUBKTNV-1">
          <mxGeometry x="178.38" y="263.13" width="82.25" height="355" as="geometry" />
        </mxCell>
        <mxCell id="Z21egWhMQGi1yjxtVaf5-28" style="edgeStyle=orthogonalEdgeStyle;rounded=0;orthogonalLoop=1;jettySize=auto;html=1;exitX=1;exitY=0.5;exitDx=0;exitDy=0;exitPerimeter=0;" edge="1" parent="WIyWlLk6GJQsqaUBKTNV-1" source="Z21egWhMQGi1yjxtVaf5-26" target="Z21egWhMQGi1yjxtVaf5-26">
          <mxGeometry relative="1" as="geometry">
            <Array as="points">
              <mxPoint x="220" y="440" />
              <mxPoint x="220" y="440" />
            </Array>
          </mxGeometry>
        </mxCell>
        <mxCell id="Z21egWhMQGi1yjxtVaf5-29" value="" style="endArrow=none;html=1;rounded=0;strokeWidth=2;" edge="1" parent="WIyWlLk6GJQsqaUBKTNV-1">
          <mxGeometry width="50" height="50" relative="1" as="geometry">
            <mxPoint x="219.5" y="450" as="sourcePoint" />
            <mxPoint x="219.5" y="400" as="targetPoint" />
          </mxGeometry>
        </mxCell>
        <mxCell id="Z21egWhMQGi1yjxtVaf5-30" value="" style="endArrow=classic;html=1;rounded=0;strokeWidth=2;" edge="1" parent="WIyWlLk6GJQsqaUBKTNV-1">
          <mxGeometry width="50" height="50" relative="1" as="geometry">
            <mxPoint x="219.5" y="320" as="sourcePoint" />
            <mxPoint x="220" y="360" as="targetPoint" />
          </mxGeometry>
        </mxCell>
      </root>
    </mxGraphModel>
  </diagram>
</mxfile>
